<svg viewBox="0 0 1280 800" xmlns="http://www.w3.org/2000/svg">
  <!-- Background -->
  <defs>
    <linearGradient id="grad2" x1="0%" y1="0%" x2="100%" y2="100%">
      <stop offset="0%" style="stop-color:#f3f4f6;stop-opacity:1" />
      <stop offset="100%" style="stop-color:#d1d5db;stop-opacity:1" />
    </linearGradient>
  </defs>
  <rect width="1280" height="800" fill="url(#grad2)"/>
  
  <!-- Header Bar -->
  <rect width="1280" height="80" fill="white" opacity="0.9"/>
  <rect width="1280" height="80" fill="none" stroke="#e5e7eb" stroke-width="2"/>
  <text x="40" y="50" font-size="28" font-weight="bold" fill="#1f2937">Markt-Match 5</text>
  <text x="1200" y="50" text-anchor="end" font-size="14" fill="#6b7280">📊 Analytics</text>
  
  <!-- Charts Container -->
  <rect x="40" y="100" width="1200" height="680" fill="white" rx="12" stroke="#e5e7eb" stroke-width="2"/>
  
  <!-- Title -->
  <text x="60" y="140" font-size="24" font-weight="bold" fill="#1f2937">Kapitalentwicklung pro Runde</text>
  
  <!-- Legend -->
  <circle cx="60" cy="175" r="6" fill="#3b82f6"/>
  <text x="75" y="180" font-size="12" fill="#6b7280">Dein Team</text>
  
  <circle cx="200" cy="175" r="6" fill="#ef4444"/>
  <text x="215" y="180" font-size="12" fill="#6b7280">Team Rot</text>
  
  <circle cx="330" cy="175" r="6" fill="#10b981"/>
  <text x="345" y="180" font-size="12" fill="#6b7280">Team Grün</text>
  
  <!-- Chart Grid -->
  <line x1="80" y1="540" x2="1180" y2="540" stroke="#e5e7eb" stroke-width="1"/>
  <line x1="80" y1="450" x2="1180" y2="450" stroke="#e5e7eb" stroke-width="1"/>
  <line x1="80" y1="360" x2="1180" y2="360" stroke="#e5e7eb" stroke-width="1"/>
  <line x1="80" y1="270" x2="1180" y2="270" stroke="#e5e7eb" stroke-width="1"/>
  
  <!-- Y-axis labels -->
  <text x="60" y="545" font-size="11" fill="#9ca3af" text-anchor="end">€0</text>
  <text x="60" y="455" font-size="11" fill="#9ca3af" text-anchor="end">€50k</text>
  <text x="60" y="365" font-size="11" fill="#9ca3af" text-anchor="end">€100k</text>
  <text x="60" y="275" font-size="11" fill="#9ca3af" text-anchor="end">€150k</text>
  
  <!-- Blue line (Dein Team) -->
  <polyline points="120,500 240,470 360,420 480,380 600,350 720,330 840,320 960,300 1080,280 1180,250" 
            fill="none" stroke="#3b82f6" stroke-width="3" stroke-linecap="round" stroke-linejoin="round"/>
  
  <!-- Red line (Team Rot) -->
  <polyline points="120,480 240,450 360,440 480,410 600,390 720,370 840,350 960,320 1080,290 1180,200" 
            fill="none" stroke="#ef4444" stroke-width="3" stroke-linecap="round" stroke-linejoin="round" stroke-dasharray="5,5"/>
  
  <!-- Green line (Team Grün) -->
  <polyline points="120,520 240,490 360,460 480,430 600,400 720,360 840,330 960,310 1080,320 1180,280" 
            fill="none" stroke="#10b981" stroke-width="3" stroke-linecap="round" stroke-linejoin="round"/>
  
  <!-- Data points -->
  <circle cx="1080" cy="280" r="5" fill="#3b82f6"/>
  <circle cx="1080" cy="290" r="5" fill="#ef4444"/>
  <circle cx="1080" cy="320" r="5" fill="#10b981"/>
  
  <!-- X-axis labels -->
  <text x="120" y="570" font-size="11" fill="#9ca3af" text-anchor="middle">P1</text>
  <text x="240" y="570" font-size="11" fill="#9ca3af" text-anchor="middle">P2</text>
  <text x="360" y="570" font-size="11" fill="#9ca3af" text-anchor="middle">P3</text>
  <text x="480" y="570" font-size="11" fill="#9ca3af" text-anchor="middle">P4</text>
  <text x="600" y="570" font-size="11" fill="#9ca3af" text-anchor="middle">P5</text>
  
  <!-- Current Status Box -->
  <rect x="80" y="610" width="1100" height="140" fill="#f9fafb" rx="8" stroke="#e5e7eb" stroke-width="1"/>
  <text x="100" y="635" font-size="14" font-weight="bold" fill="#1f2937">📈 Aktueller Spielstand</text>
  
  <rect x="100" y="650" width="200" height="80" fill="white" rx="6" stroke="#e5e7eb" stroke-width="1"/>
  <text x="120" y="670" font-size="12" fill="#6b7280">Dein Team</text>
  <text x="120" y="695" font-size="20" font-weight="bold" fill="#3b82f6">€135,200</text>
  <text x="120" y="720" font-size="11" fill="#10b981">+€15,200 diese Runde</text>
  
  <rect x="320" y="650" width="200" height="80" fill="white" rx="6" stroke="#e5e7eb" stroke-width="1"/>
  <text x="340" y="670" font-size="12" fill="#6b7280">Team Rot</text>
  <text x="340" y="695" font-size="20" font-weight="bold" fill="#ef4444">€98,500</text>
  <text x="340" y="720" font-size="11" fill="#ef4444">-€12,000 diese Runde</text>
  
  <rect x="540" y="650" width="200" height="80" fill="white" rx="6" stroke="#e5e7eb" stroke-width="1"/>
  <text x="560" y="670" font-size="12" fill="#6b7280">Team Grün</text>
  <text x="560" y="695" font-size="20" font-weight="bold" fill="#10b981">€127,800</text>
  <text x="560" y="720" font-size="11" fill="#6b7280">+€8,500 diese Runde</text>
</svg>